<svg width="617" height="617" xmlns="http://www.w3.org/2000/svg" xmlns:xlink="http://www.w3.org/1999/xlink" overflow="hidden"><defs><clipPath id="clip0"><rect x="310" y="33" width="617" height="617"/></clipPath></defs><g clip-path="url(#clip0)" transform="translate(-310 -33)"><path d="M509.24 232.24 438.542 232.24 438.542 187.25 509.24 187.25 509.24 232.24ZM605.646 187.25 605.646 232.24 534.948 232.24 534.948 187.25 605.646 187.25ZM702.052 187.25 702.052 232.24 631.354 232.24 631.354 187.25 702.052 187.25ZM798.458 187.25 798.458 232.24 727.76 232.24 727.76 187.25 798.458 187.25ZM798.458 302.938 727.76 302.938 727.76 257.948 798.458 257.948 798.458 302.938ZM798.458 357.568 727.76 363.995 727.76 328.646 798.458 328.646 798.458 357.568ZM509.24 328.646 509.24 383.276 438.542 389.703 438.542 328.646 509.24 328.646ZM509.24 302.938 438.542 302.938 438.542 257.948 509.24 257.948 509.24 302.938ZM605.646 302.938 534.948 302.938 534.948 257.948 605.646 257.948 605.646 302.938ZM631.354 302.938 631.354 257.948 702.052 257.948 702.052 302.938 631.354 302.938ZM605.646 374.921 534.948 381.348 534.948 328.646 605.646 328.646 605.646 374.921ZM631.354 328.646 702.052 328.646 702.052 365.923 631.354 372.35 631.354 328.646ZM837.021 392.917 837.021 148.688 438.542 148.688 438.542 142.26C438.542 110.125 412.833 84.4167 380.698 84.4167 369.772 84.4167 361.417 92.7719 361.417 103.698 361.417 114.624 369.772 122.979 380.698 122.979 391.624 122.979 399.979 131.334 399.979 142.26L399.979 463.615C399.979 495.75 425.688 521.458 457.823 521.458L477.104 521.458 759.896 521.458 817.74 521.458C828.666 521.458 837.021 513.103 837.021 502.177 837.021 491.251 828.666 482.896 817.74 482.896L457.823 482.896C446.897 482.896 438.542 474.541 438.542 463.615L438.542 428.266 837.021 392.917Z" fill="#FE423F"/><path d="M515.667 560.021C515.667 581.318 498.402 598.583 477.104 598.583 455.807 598.583 438.542 581.318 438.542 560.021 438.542 538.723 455.807 521.458 477.104 521.458 498.402 521.458 515.667 538.723 515.667 560.021Z" fill="#FE423F"/><path d="M798.458 560.021C798.458 581.318 781.193 598.583 759.896 598.583 738.598 598.583 721.333 581.318 721.333 560.021 721.333 538.723 738.598 521.458 759.896 521.458 781.193 521.458 798.458 538.723 798.458 560.021Z" fill="#FE423F"/></g></svg>