<svg width="591" height="591" xmlns="http://www.w3.org/2000/svg" xmlns:xlink="http://www.w3.org/1999/xlink" overflow="hidden"><defs><clipPath id="clip0"><rect x="112" y="33" width="591" height="591"/></clipPath></defs><g clip-path="url(#clip0)" transform="translate(-112 -33)"><path d="M638.359 498.412 561.406 421.459C550.941 410.994 536.781 407.3 523.238 409.763L496.15 382.675C520.159 351.894 534.319 312.494 534.319 270.631 534.319 169.053 451.209 85.9438 349.631 85.9438 248.053 85.9438 164.944 169.053 164.944 270.631 164.944 372.209 248.053 455.319 349.631 455.319 391.494 455.319 430.278 441.159 461.675 417.15L488.763 444.238C486.3 457.781 489.994 471.941 500.459 482.406L577.412 559.359C586.031 567.978 597.113 572.287 608.194 572.287 619.275 572.287 630.356 567.978 638.975 559.359 654.981 542.122 654.981 515.034 638.359 498.412ZM349.016 417.766C267.753 417.766 201.266 351.278 201.266 270.016 201.266 188.753 267.753 122.266 349.016 122.266 430.278 122.266 496.766 188.753 496.766 270.016 496.766 351.278 430.278 417.766 349.016 417.766Z" fill="#FE423F"/></g></svg>